<?xml version="1.0" encoding="UTF-8" standalone="no"?>
<svg
   width="377"
   height="44.015755"
   viewBox="0 0 377 44.015755"
   fill="none"
   version="1.1"
   id="svg31"
   sodipodi:docname="button__glass__rotate.svg"
   inkscape:version="1.1.2 (b8e25be833, 2022-02-05)"
   xmlns:inkscape="http://www.inkscape.org/namespaces/inkscape"
   xmlns:sodipodi="http://sodipodi.sourceforge.net/DTD/sodipodi-0.dtd"
   xmlns="http://www.w3.org/2000/svg"
   xmlns:svg="http://www.w3.org/2000/svg">
  <sodipodi:namedview
     id="namedview33"
     pagecolor="#ffffff"
     bordercolor="#666666"
     borderopacity="1.0"
     inkscape:pageshadow="2"
     inkscape:pageopacity="0.0"
     inkscape:pagecheckerboard="0"
     showgrid="false"
     inkscape:zoom="3.2016745"
     inkscape:cx="192.55549"
     inkscape:cy="2.1863559"
     inkscape:window-width="1920"
     inkscape:window-height="1017"
     inkscape:window-x="-8"
     inkscape:window-y="-8"
     inkscape:window-maximized="1"
     inkscape:current-layer="svg31" />
  <path
     opacity="0.31"
     d="m 0.62467312,23.534464 v 11.82341 c 0.072,2.24915 0.94999998,4.37923 2.44699998,5.93759 1.498,1.55835 3.497,2.42214 5.572,2.40778 H 369.90954 c 1.01196,0.001 2.01423,-0.2135 2.94962,-0.63219 0.93538,-0.41868 1.78557,-1.03305 2.50198,-1.80799 0.71642,-0.77493 1.28504,-1.6953 1.67342,-2.70851 0.38837,-1.01322 0.5889,-2.09944 0.59011,-3.19668 V -0.31233645 c 0,0 -48.4569,18.16990045 -151.61101,24.41650045 -95.891,5.8067 -225.38898688,-0.5697 -225.38898688,-0.5697 z"
     fill="url(#paint0_linear_6_409)"
     id="path22"
     style="fill:url(#paint0_linear_6_409)"
     clip-path="url(#clipPath195)"
     transform="translate(0.6246731,14.679818)" />
  <defs
     id="defs29">
    <linearGradient
       id="paint0_linear_6_409"
       x1="188.5"
       y1="-9.2696304"
       x2="188.5"
       y2="54.594898"
       gradientUnits="userSpaceOnUse"
       gradientTransform="rotate(180,188.81233,21.934183)">
      <stop
         stop-color="#81C0FB"
         id="stop24" />
      <stop
         offset="1"
         stop-color="white"
         id="stop26" />
    </linearGradient>
    <clipPath
       clipPathUnits="userSpaceOnUse"
       id="clipPath195">
      <rect
         style="fill:#0000ff;fill-rule:evenodd"
         id="rect197"
         width="425.4024"
         height="49.661514"
         x="-17.803185"
         y="-21.112906" />
    </clipPath>
  </defs>
</svg>
